<?xml version="1.0" standalone="no"?>
<!DOCTYPE svg PUBLIC "-//W3C//DTD SVG 20010904//EN"
 "http://www.w3.org/TR/2001/REC-SVG-20010904/DTD/svg10.dtd">
<svg version="1.0" xmlns="http://www.w3.org/2000/svg"
 width="640.000000pt" height="640.000000pt" viewBox="0 0 640.000000 640.000000"
 preserveAspectRatio="xMidYMid meet">
<metadata>
Created by potrace 1.11, written by Peter Selinger 2001-2013
</metadata>
<g transform="translate(0.000000,640.000000) scale(0.100000,-0.100000)"
fill="#000000" stroke="none">
<path d="M2558 6395 c-2 -2 -104 -6 -228 -10 -124 -3 -256 -8 -295 -10 -38 -2
-137 -6 -220 -9 -82 -4 -175 -9 -205 -11 -30 -2 -107 -6 -170 -10 -63 -3 -133
-8 -156 -11 -22 -2 -81 -6 -131 -8 -142 -7 -220 -50 -258 -139 -13 -31 -16
-83 -16 -292 0 -262 4 -295 40 -295 40 0 43 19 43 287 0 237 1 261 19 289 26
42 77 61 185 69 49 3 114 8 144 10 30 2 98 7 150 10 52 3 133 7 180 10 47 3
139 7 205 10 66 3 163 7 215 10 265 13 590 19 1125 19 610 0 937 -7 1365 -29
52 -2 142 -7 200 -10 58 -3 141 -7 185 -10 44 -3 122 -7 174 -10 52 -4 115 -8
140 -11 25 -3 55 -5 65 -5 21 0 73 -25 93 -45 27 -26 31 -66 31 -313 0 -213 2
-256 15 -268 18 -18 63 -11 65 9 3 44 2 517 -2 535 -21 100 -109 158 -258 168
-29 2 -93 6 -143 10 -49 3 -117 8 -150 10 -73 5 -275 16 -370 20 -38 2 -144 6
-235 10 -91 4 -210 9 -265 11 -119 6 -1532 14 -1537 9z"/>
<path d="M1055 5599 c-27 -4 -61 -11 -75 -17 -30 -12 -72 -57 -87 -93 -11 -26
-10 -130 1 -186 7 -35 17 -91 20 -118 7 -53 19 -132 21 -145 1 -8 6 -40 10
-70 4 -30 9 -64 11 -75 2 -11 7 -40 10 -65 3 -25 8 -54 10 -65 2 -10 6 -35 8
-55 13 -94 17 -117 20 -136 2 -12 7 -45 11 -74 4 -29 9 -62 11 -74 2 -11 6
-37 9 -58 3 -20 8 -51 10 -68 3 -16 7 -44 10 -60 2 -17 7 -50 10 -73 3 -23 8
-53 10 -67 6 -36 33 -217 40 -270 3 -25 8 -52 10 -60 2 -8 7 -37 10 -65 19
-172 37 -229 81 -264 l28 -22 20 20 20 20 -22 48 c-25 54 -28 64 -48 209 -3
22 -7 48 -8 59 -2 11 -6 40 -10 65 -4 25 -9 56 -11 70 -3 14 -7 45 -10 70 -3
25 -7 54 -9 65 -4 24 -16 99 -21 135 -5 39 -16 112 -21 145 -3 17 -7 46 -10
65 -2 19 -9 60 -14 90 -5 30 -12 75 -15 100 -3 25 -7 56 -10 70 -5 25 -13 81
-20 135 -2 17 -6 44 -9 61 -3 18 -8 52 -11 75 -3 24 -10 69 -15 99 -5 30 -12
71 -14 90 -2 19 -9 64 -15 100 -6 36 -13 88 -16 115 -3 28 -8 63 -11 79 -6 38
11 81 41 100 20 13 277 15 2197 15 l2174 0 29 -23 c25 -20 29 -30 29 -72 0
-46 -12 -153 -19 -164 -2 -3 -6 -32 -9 -64 -4 -33 -16 -116 -27 -185 -27 -168
-27 -168 -34 -231 -3 -30 -8 -62 -10 -70 -4 -14 -9 -49 -20 -127 -2 -15 -6
-41 -8 -58 -8 -47 -17 -107 -21 -140 -3 -23 -59 -397 -91 -605 -2 -14 -7 -47
-11 -75 -3 -27 -8 -57 -10 -67 -1 -9 -6 -37 -9 -62 -4 -26 -16 -58 -27 -71
-28 -35 -18 -75 19 -75 39 0 79 62 89 139 2 20 6 47 9 61 3 14 7 42 10 63 3
20 7 54 10 75 3 20 7 48 10 62 2 14 7 45 10 70 3 25 8 56 10 70 3 14 7 41 9
60 3 19 7 49 10 65 2 17 7 50 11 75 10 66 13 88 24 160 6 36 13 81 15 100 12
84 28 196 31 210 5 25 25 162 30 205 3 22 10 65 15 95 5 30 12 75 15 100 3 25
11 74 17 110 5 36 12 76 14 90 2 14 7 48 11 75 4 28 7 78 7 112 0 54 -4 67
-30 100 -17 20 -46 45 -66 55 -34 18 -111 19 -2174 21 -1177 1 -2161 -1 -2189
-4z"/>
<path d="M1102 5439 c-47 -6 -62 -21 -56 -53 2 -12 6 -41 9 -66 3 -25 7 -56
10 -70 5 -30 14 -91 21 -140 2 -19 9 -62 15 -95 6 -33 12 -73 14 -90 1 -16 6
-50 10 -75 4 -25 9 -56 10 -70 2 -14 5 -38 8 -55 5 -30 15 -97 22 -145 5 -36
17 -111 21 -135 2 -11 6 -38 9 -60 3 -22 7 -53 10 -70 11 -66 15 -92 20 -135
3 -25 7 -56 10 -70 3 -13 7 -42 10 -65 14 -98 26 -175 31 -210 3 -16 7 -46 10
-65 2 -19 6 -46 9 -60 2 -14 7 -43 10 -65 13 -95 20 -107 58 -99 34 6 38 21
23 99 -3 17 -8 55 -11 85 -4 30 -8 62 -10 70 -3 8 -11 65 -20 125 -9 61 -18
121 -20 135 -2 14 -7 43 -10 65 -4 22 -10 67 -15 100 -5 33 -12 83 -16 110 -3
28 -8 52 -9 55 -2 3 -7 35 -10 70 -4 36 -8 68 -11 71 -2 3 -6 32 -10 64 -3 32
-8 68 -10 79 -2 12 -7 41 -10 66 -3 25 -8 47 -9 50 -2 3 -7 35 -10 70 -4 36
-8 67 -10 70 -2 3 -6 30 -10 60 -3 30 -10 80 -15 110 -5 30 -12 75 -15 100 -3
25 -7 56 -10 70 -2 14 -7 39 -10 57 l-5 32 2069 0 2069 0 -3 -22 c-2 -12 -6
-44 -10 -72 -4 -27 -9 -59 -11 -70 -1 -11 -8 -55 -14 -97 -6 -42 -13 -87 -15
-99 -5 -24 -11 -70 -20 -141 -3 -24 -8 -54 -10 -68 -6 -32 -12 -73 -20 -130
-3 -25 -12 -85 -20 -135 -8 -49 -17 -108 -20 -130 -3 -22 -7 -51 -10 -65 -2
-14 -9 -59 -15 -100 -6 -41 -12 -88 -15 -105 -6 -44 -13 -90 -20 -134 -3 -21
-8 -54 -10 -72 -3 -19 -7 -45 -10 -59 -3 -14 -8 -45 -11 -70 -9 -76 -12 -94
-18 -129 -16 -83 -7 -121 29 -121 30 0 39 20 50 105 3 22 7 51 10 65 2 14 7
43 10 65 3 23 7 50 9 60 3 17 9 58 21 140 1 11 8 56 15 100 7 44 14 91 15 105
1 14 5 39 8 55 4 17 9 50 12 75 3 25 10 72 15 105 5 33 12 78 15 100 2 22 6
49 9 60 5 29 15 94 21 140 3 22 7 49 9 60 2 11 7 43 10 70 4 28 13 92 21 142
8 51 22 139 30 195 23 168 25 182 30 205 7 32 -20 53 -68 54 -332 4 -4154 2
-4185 -2z"/>
<path d="M3017 4720 c-31 -4 -53 -21 -127 -93 -50 -49 -90 -97 -90 -107 0 -10
30 -44 66 -76 72 -65 83 -75 169 -151 32 -29 57 -55 54 -57 -2 -2 -23 -6 -46
-10 -52 -7 -180 -49 -236 -78 -180 -91 -338 -260 -416 -445 -54 -126 -65 -185
-65 -343 0 -162 17 -245 76 -368 18 -37 31 -70 30 -74 -1 -5 2 -8 7 -8 5 0 11
-7 15 -15 4 -13 -7 -15 -72 -14 -195 2 -201 1 -214 -26 -9 -21 -9 -29 3 -41
23 -22 755 -22 777 0 13 12 13 20 4 41 -12 27 -25 28 -189 26 -52 0 -52 0 -47
27 4 21 -1 36 -19 58 -30 35 -102 164 -92 164 4 0 3 6 -3 13 -22 26 -34 105
-35 222 0 103 4 130 26 192 78 223 255 382 477 429 78 16 220 12 296 -9 65
-18 174 -67 174 -78 0 -5 5 -9 11 -9 22 0 119 -92 163 -153 83 -118 117 -219
121 -364 5 -142 -39 -284 -119 -389 -40 -52 -45 -78 -18 -93 12 -7 -20 -10
-107 -10 -99 1 -127 -2 -139 -15 -13 -12 -13 -20 -4 -41 9 -20 19 -25 49 -25
21 -1 191 -1 377 -1 288 0 342 3 355 15 12 12 12 20 3 41 -13 28 -1 26 -202
26 -83 1 -101 3 -89 12 23 17 64 103 93 191 105 322 26 656 -213 897 -119 120
-288 211 -445 241 -36 7 -66 16 -66 20 0 4 9 13 20 21 10 7 43 36 73 63 29 27
86 78 125 112 40 35 72 71 72 81 0 9 -40 57 -89 106 l-89 90 -184 5 c-101 3
-200 3 -221 0z m427 -140 l56 -58 -77 -68 c-43 -38 -98 -87 -123 -110 -25 -22
-56 -50 -69 -62 -14 -12 -28 -22 -32 -22 -4 0 -25 17 -47 38 -22 20 -57 51
-78 69 -22 18 -64 55 -94 82 -30 28 -58 51 -62 51 -22 0 -2 39 44 86 l52 53
187 0 186 0 57 -59z m-34 -450 c173 -47 317 -145 427 -291 44 -58 108 -176
119 -217 2 -10 11 -42 20 -72 23 -78 24 -294 0 -375 -9 -33 -19 -67 -21 -77
-2 -9 -22 -54 -44 -100 -24 -51 -36 -87 -30 -93 20 -20 6 -26 -65 -24 l-75 2
40 53 c85 116 129 243 135 394 8 211 -59 384 -207 537 -72 74 -206 158 -286
179 -140 36 -301 40 -408 10 -166 -46 -320 -156 -406 -288 -16 -24 -33 -48
-37 -53 -13 -16 -63 -143 -69 -174 -2 -14 -8 -44 -13 -65 -5 -22 -7 -44 -4
-48 3 -4 1 -8 -5 -8 -6 0 -9 -6 -6 -12 2 -7 6 -49 9 -94 10 -143 59 -280 141
-387 l35 -46 -75 1 c-77 1 -81 3 -65 28 6 10 -1 32 -25 75 -55 98 -86 221 -90
352 -2 62 1 132 7 155 5 24 12 54 14 67 3 14 7 28 10 33 3 4 7 16 9 27 7 39
65 149 111 211 123 167 285 271 494 315 88 19 261 12 360 -15z"/>
<path d="M3003 4562 c-34 -5 -48 -28 -35 -57 12 -26 34 -30 150 -25 23 1 42
-2 41 -7 -1 -4 -1 -36 0 -71 1 -56 3 -64 26 -74 41 -18 55 3 55 83 l0 68 85
-1 c106 -1 137 19 102 66 -11 15 -35 17 -207 19 -107 1 -205 1 -217 -1z"/>
<path d="M1429 3439 c-90 -7 -154 -36 -209 -91 -40 -42 -67 -92 -180 -343 -12
-27 -39 -86 -60 -130 -43 -92 -82 -176 -135 -290 -20 -44 -39 -99 -42 -121 -8
-68 30 -120 100 -138 16 -4 1046 -6 2290 -6 1244 1 2271 1 2281 1 32 0 83 29
102 57 9 14 19 43 21 63 5 38 -5 63 -117 304 -23 50 -51 110 -62 135 -50 109
-152 329 -176 378 -44 91 -139 165 -226 178 -17 2 -210 5 -430 5 -347 1 -401
-1 -414 -15 -13 -12 -13 -20 -4 -41 11 -23 16 -25 84 -25 40 0 233 -1 428 -3
l355 -2 42 -27 c36 -24 93 -85 93 -101 0 -3 20 -47 44 -99 24 -51 52 -113 64
-138 11 -25 39 -85 62 -135 23 -49 51 -110 62 -135 42 -94 90 -196 100 -214
19 -35 20 -72 1 -88 -16 -15 -224 -16 -2311 -15 -2026 2 -2294 4 -2303 17 -14
22 -5 57 44 161 58 123 88 189 127 274 200 438 217 465 306 493 23 7 178 11
441 11 419 0 433 1 433 41 0 39 -17 41 -382 43 -194 1 -387 -1 -429 -4z"/>
<path d="M1437 3279 c-99 -11 -104 -17 -221 -274 -92 -200 -131 -284 -176
-380 -51 -109 -51 -111 -31 -130 17 -15 192 -16 2191 -16 2015 0 2174 1 2191
17 22 20 38 -19 -161 410 -23 49 -64 139 -92 199 -51 113 -77 148 -125 166
-43 16 -818 15 -838 -1 -18 -15 -19 -31 -2 -54 11 -16 44 -17 415 -17 397 -1
403 -1 422 -22 11 -11 20 -24 20 -28 0 -4 23 -56 51 -116 28 -59 61 -130 74
-158 12 -27 39 -85 59 -127 20 -43 47 -102 60 -132 l24 -54 -2091 0 c-1150 0
-2095 2 -2100 5 -5 3 -1 14 9 24 9 10 14 19 10 19 -4 0 0 12 8 28 17 29 97
205 96 210 0 1 11 23 24 50 14 26 41 83 61 127 65 141 69 150 85 162 11 9 121
12 413 12 413 -1 427 1 427 41 0 39 -16 41 -387 43 -197 1 -384 -1 -416 -4z"/>
<path d="M811 2306 c-9 -10 -12 -127 -12 -428 0 -227 3 -424 5 -437 11 -53 44
-97 94 -127 49 -30 89 -36 210 -35 6 0 32 0 57 0 25 0 52 0 60 0 8 0 35 0 60
0 25 0 52 0 60 0 8 0 35 0 60 0 25 0 52 0 60 0 8 0 35 0 60 0 25 0 52 0 60 0
8 0 35 0 60 0 25 0 52 0 60 0 8 0 35 0 60 0 25 0 52 0 60 0 8 0 35 0 60 0 25
0 52 0 60 0 8 0 35 0 60 0 25 0 52 0 60 0 8 0 35 0 60 0 25 0 52 0 60 0 8 0
35 0 60 0 25 0 52 0 60 0 8 0 35 0 60 0 25 0 52 0 60 0 8 0 35 0 60 0 25 0 52
0 60 0 8 0 35 0 60 0 25 0 52 0 60 0 8 0 35 0 60 0 25 0 52 0 60 0 8 0 35 0
60 0 25 0 52 0 60 0 8 0 35 0 60 0 25 0 52 0 60 0 8 0 35 0 60 0 25 0 52 0 60
0 8 0 35 0 60 0 25 0 52 0 60 0 8 0 35 0 60 0 25 0 52 0 60 0 8 0 35 0 60 0
25 0 52 0 60 0 8 0 35 0 60 0 25 0 52 0 60 0 8 0 35 0 60 0 25 0 52 0 60 0 8
0 35 0 60 0 25 0 52 0 60 0 8 0 35 0 60 0 25 0 52 0 60 0 8 0 35 0 60 0 25 0
52 0 60 0 8 0 35 0 60 0 25 0 52 0 60 0 8 0 35 0 60 0 25 0 52 0 60 0 8 0 35
0 60 0 25 0 52 0 60 0 8 0 35 0 60 0 25 0 52 0 60 0 8 0 35 0 60 0 25 0 52 0
60 0 8 0 35 0 60 0 25 0 52 0 60 0 8 0 35 0 60 0 25 0 52 0 60 0 8 0 35 0 60
0 25 0 53 0 63 0 9 0 44 0 77 0 58 0 70 0 98 2 6 1 48 0 92 -1 44 0 89 1 100
4 80 18 141 76 159 150 12 49 8 843 -4 866 -6 11 -18 20 -28 20 -44 -1 -44 5
-44 -444 0 -421 0 -427 -22 -458 -12 -18 -32 -38 -45 -44 -18 -9 -571 -12
-2262 -11 l-2239 2 -32 33 -33 32 -2 432 c-1 401 -3 433 -19 445 -23 17 -39
16 -53 -1z"/>
<path d="M842 1154 c2 -16 8 -21 25 -20 12 0 25 6 27 12 3 7 -3 10 -16 6 -11
-3 -24 1 -29 9 -6 10 -8 8 -7 -7z"/>
<path d="M641 1144 c0 -11 3 -14 6 -6 3 7 2 16 -1 19 -3 4 -6 -2 -5 -13z"/>
<path d="M671 1147 c-8 -10 -7 -14 2 -14 8 0 14 6 14 14 0 7 -1 13 -2 13 -2 0
-8 -6 -14 -13z"/>
<path d="M700 1146 c0 -10 16 -13 60 -12 33 1 60 6 60 11 0 6 -11 10 -25 10
-14 1 -25 -4 -25 -10 0 -5 -5 -3 -10 5 -6 10 -10 11 -10 3 0 -9 -7 -10 -25 -3
-19 7 -25 6 -25 -4z"/>
<path d="M926 1149 c2 -4 -2 -9 -8 -11 -7 -3 12 -5 43 -5 36 0 56 4 56 12 0
14 -49 14 -59 0 -5 -6 -8 -6 -8 1 0 6 -7 11 -15 11 -8 0 -12 -4 -9 -8z"/>
<path d="M1048 1152 c-10 -2 -18 -10 -18 -19 0 -12 3 -13 13 -4 8 6 17 8 21 4
4 -4 11 -1 16 7 6 9 10 10 10 3 0 -6 8 -11 18 -10 10 0 19 6 19 12 0 10 -43
14 -79 7z"/>
<path d="M776 1105 c-9 -23 -9 -23 24 -21 17 0 30 6 30 13 0 7 -7 10 -16 6 -9
-3 -19 0 -24 6 -5 9 -9 8 -14 -4z"/>
<path d="M858 1104 c-4 -17 0 -20 33 -20 23 0 39 4 39 11 0 7 -7 12 -15 12 -8
0 -12 -4 -9 -9 3 -4 0 -8 -5 -8 -6 0 -11 5 -11 11 0 5 -4 8 -9 5 -5 -4 -11 -1
-13 6 -3 7 -7 4 -10 -8z"/>
<path d="M1003 1101 c1 -15 4 -17 19 -8 13 8 14 13 5 19 -19 12 -26 9 -24 -11z"/>
<path d="M1084 1108 c3 -10 1 -18 -4 -18 -6 0 -10 5 -10 11 0 5 -4 7 -10 4 -5
-3 -10 -11 -10 -17 0 -6 3 -8 7 -5 3 4 12 2 20 -4 10 -9 13 -8 13 1 0 8 9 11
23 8 14 -3 24 0 24 7 0 6 -10 11 -21 10 -12 -1 -25 3 -29 9 -6 7 -7 4 -3 -6z"/>
<path d="M643 1095 c0 -5 11 -10 24 -10 13 0 23 4 23 9 0 5 6 4 13 -1 16 -14
44 -12 44 2 0 7 -20 11 -52 11 -28 -1 -52 -5 -52 -11z"/>
<path d="M955 1100 c-11 -5 -18 -9 -15 -10 25 -7 37 -6 37 6 0 8 -1 14 -1 13
-1 0 -10 -4 -21 -9z"/>
</g>
</svg>
