<svg xmlns="http://www.w3.org/2000/svg" xmlns:xlink="http://www.w3.org/1999/xlink" version="1.1" x="0px" y="0px" viewBox="0 0 512 640" enable-background="new 0 0 512 512" xml:space="preserve" fill="#B71C1C"><g><g><g><path d="M20.045,495.954c-2.21,0-3.999-1.789-3.999-3.999V411.97c0-2.21,1.789-3.999,3.999-3.999s3.999,1.789,3.999,3.999v79.985     C24.044,494.165,22.256,495.954,20.045,495.954z"/></g></g><g><g><path d="M36.042,511.951c-11.029,0-19.996-8.968-19.996-19.996c0-2.211,1.789-4,3.999-4s3.999,1.789,3.999,4     c0,6.615,5.382,11.997,11.998,11.997c2.21,0,3.999,1.789,3.999,3.999C40.042,510.162,38.253,511.951,36.042,511.951z"/></g></g><g><g><path d="M491.955,495.954c-2.211,0-4-1.789-4-3.999V411.97c0-2.21,1.789-3.999,4-3.999s3.998,1.789,3.998,3.999v79.985     C495.953,494.165,494.166,495.954,491.955,495.954z"/></g></g><g><g><path d="M475.957,511.951c-2.209,0-3.998-1.789-3.998-4c0-2.21,1.789-3.999,3.998-3.999c6.617,0,11.998-5.382,11.998-11.997     c0-2.211,1.789-4,4-4s3.998,1.789,3.998,4C495.953,502.983,486.986,511.951,475.957,511.951z"/></g></g><g><g><path d="M475.957,511.951H36.042c-2.211,0-3.999-1.789-3.999-4c0-2.21,1.788-3.999,3.999-3.999h439.915c2.211,0,4,1.789,4,3.999     C479.957,510.162,478.168,511.951,475.957,511.951z"/></g></g><g><g><path d="M481.316,407.971H30.684c-5.585,0-10.217-2.227-12.701-6.108s-2.57-9.021-0.227-14.099l34.587-74.923     c4.358-9.444,15.926-16.849,26.331-16.849c2.21,0,4,1.789,4,3.999c0,2.211-1.789,3.999-4,3.999     c-7.28,0-16.012,5.593-19.067,12.209l-34.587,74.923c-1.195,2.578-1.297,4.866-0.297,6.429s3.117,2.422,5.96,2.422h450.632     c2.844,0,4.959-0.859,5.959-2.422c1-1.57,0.898-3.851-0.297-6.429l-34.586-74.923c-3.055-6.616-11.787-12.209-19.066-12.209     c-2.211,0-4-1.788-4-3.999c0-2.21,1.789-3.999,4-3.999c10.404,0,21.971,7.404,26.33,16.849l34.588,74.923     c2.334,5.077,2.256,10.209-0.227,14.099C491.525,405.744,486.9,407.971,481.316,407.971z"/></g></g><g><g><g><path d="M472.311,391.974H39.682c-1.367,0-2.632-0.695-3.366-1.843c-0.734-1.148-0.836-2.594-0.266-3.836l30.814-66.752      c1.726-3.742,7.686-7.554,11.81-7.554c2.21,0,4,1.788,4,3.999c0,2.203-1.789,3.991-3.992,3.999      c-1.132,0.062-4.031,1.922-4.562,2.922l-28.19,61.066h420.129l-28.189-61.074c-0.531-0.969-3.445-2.836-4.576-2.914      c-2.141-0.156-3.914-1.991-3.836-4.14s1.711-3.858,3.867-3.858c4.115,0,10.076,3.812,11.809,7.554l30.807,66.752      c0.57,1.242,0.469,2.688-0.266,3.836C474.941,391.278,473.678,391.974,472.311,391.974z"/></g></g></g><g><g><path d="M451.971,297.406c-0.938,0-1.875-0.328-2.633-0.992c-1.664-1.453-1.836-3.976-0.375-5.64     c1.859-2.132,3.039-4.616,3.406-7.179L479.84,99.288c0.43-3.031-0.336-5.874-2.164-7.983c-1.836-2.108-4.537-3.272-7.615-3.272     H41.94c-3.078,0-5.78,1.164-7.608,3.265c-1.835,2.117-2.601,4.96-2.171,8.015l27.471,184.253c0.367,2.586,1.539,5.062,3.39,7.194     c1.453,1.664,1.273,4.187-0.39,5.64c-1.664,1.461-4.195,1.281-5.64-0.391c-2.875-3.296-4.694-7.201-5.272-11.295L24.248,100.467     c-0.773-5.421,0.672-10.521,4.046-14.412c3.375-3.882,8.217-6.022,13.646-6.022h428.121c5.436,0,10.287,2.14,13.654,6.03     c3.373,3.898,4.811,8.999,4.037,14.38l-27.471,184.3c-0.578,4.078-2.414,7.991-5.305,11.295     C454.189,296.945,453.08,297.406,451.971,297.406z"/></g></g><g><g><g><path d="M440.504,285.893c-0.195,0-0.398-0.016-0.594-0.047c-2.188-0.32-3.695-2.359-3.367-4.538l26.41-177.278H49.04      l26.409,177.185c0.328,2.179-1.179,4.218-3.366,4.538c-2.125,0.328-4.218-1.18-4.538-3.366l-27.097-181.77      c-0.172-1.148,0.164-2.312,0.922-3.195s1.867-1.391,3.03-1.391h423.192c1.164,0,2.273,0.508,3.031,1.391      s1.094,2.047,0.922,3.195l-27.098,181.864C444.16,284.471,442.449,285.893,440.504,285.893z"/></g></g></g><g><g><path d="M483.957,80.034c-2.211,0-4-1.789-4-4v-47.99c0-2.211,1.789-4,4-4c2.209,0,3.998,1.789,3.998,4v47.99     C487.955,78.245,486.166,80.034,483.957,80.034z"/></g></g><g><g><path d="M28.044,32.043c-2.21,0-4-1.789-4-3.999c0-11.389,10.045-18.786,19.497-19.965c2.14-0.32,4.194,1.273,4.468,3.468     s-1.281,4.194-3.468,4.468c-6.147,0.766-12.497,5.476-12.497,12.029C32.043,30.254,30.254,32.043,28.044,32.043z"/></g></g><g><g><path d="M483.957,32.043c-2.211,0-4-1.789-4-3.999c0-6.554-6.35-11.264-12.498-12.029c-2.188-0.273-3.74-2.273-3.467-4.468     c0.266-2.195,2.318-3.788,4.467-3.468c9.451,1.179,19.496,8.576,19.496,19.965C487.955,30.254,486.166,32.043,483.957,32.043z"/></g></g><g><g><path d="M28.044,80.034c-2.21,0-4-1.789-4-4v-47.99c0-2.211,1.789-4,4-4s4,1.789,4,4v47.99     C32.043,78.245,30.254,80.034,28.044,80.034z"/></g></g><g><g><path d="M44.033,16.046c-2.054,0-3.804-1.578-3.976-3.663c-0.188-2.203,1.453-4.14,3.648-4.319     C44.673,7.985,141.178,0.049,256,0.049c114.814,0,211.326,7.937,212.294,8.015c2.195,0.179,3.836,2.116,3.648,4.319     c-0.18,2.202-2.094,3.843-4.32,3.647C466.67,15.952,370.471,8.048,256,8.048c-114.494,0-210.671,7.904-211.624,7.982     C44.259,16.038,44.15,16.046,44.033,16.046z"/></g></g><g><g><path d="M327.549,351.981c-0.719,0-1.445-0.195-2.102-0.594c-1.875-1.164-2.461-3.624-1.305-5.507     c7.75-12.56,11.842-27.049,11.842-41.891c0-44.101-35.883-79.984-79.984-79.984c-44.102,0-79.985,35.884-79.985,79.984     c0,14.834,4.093,29.315,11.826,41.891c1.156,1.875,0.57,4.343-1.312,5.499c-1.851,1.156-4.335,0.57-5.499-1.312     c-8.514-13.834-13.013-29.769-13.013-46.078c0-48.514,39.469-87.982,87.983-87.982c48.513,0,87.982,39.469,87.982,87.982     c0,16.325-4.506,32.268-13.027,46.094C330.197,351.31,328.885,351.981,327.549,351.981z"/></g></g><g><g><path d="M204.159,351.981c-1.133,0-2.258-0.477-3.046-1.414c-11.029-12.981-17.098-29.525-17.098-46.577     c0-39.695,32.291-71.986,71.986-71.986c39.695,0,71.986,32.291,71.986,71.986c0,16.958-6.014,33.432-16.941,46.382     c-1.422,1.695-3.945,1.898-5.633,0.477c-1.688-1.421-1.906-3.944-0.477-5.632c9.709-11.506,15.053-26.15,15.053-41.227     c0-35.281-28.705-63.987-63.988-63.987s-63.988,28.706-63.988,63.987c0,15.162,5.397,29.861,15.192,41.406     c1.43,1.68,1.227,4.203-0.461,5.632C205.994,351.669,205.073,351.981,204.159,351.981z"/></g></g><g><g><path d="M156.019,303.99H78.675c-2.21,0-4-1.788-4-3.999c0-2.21,1.789-3.999,4-3.999h77.344c2.211,0,4,1.789,4,3.999     C160.019,302.202,158.23,303.99,156.019,303.99z"/></g></g><g><g><path d="M433.326,303.99H355.98c-2.211,0-3.998-1.788-3.998-3.999c0-2.21,1.787-3.999,3.998-3.999h77.346     c2.209,0,3.998,1.789,3.998,3.999C437.324,302.202,435.535,303.99,433.326,303.99z"/></g></g><g><g><path d="M156.019,319.987H78.675c-2.21,0-4-1.788-4-3.999s1.789-3.999,4-3.999h77.344c2.211,0,4,1.788,4,3.999     S158.23,319.987,156.019,319.987z"/></g></g><g><g><path d="M433.326,319.987H355.98c-2.211,0-3.998-1.788-3.998-3.999s1.787-3.999,3.998-3.999h77.346     c2.209,0,3.998,1.788,3.998,3.999S435.535,319.987,433.326,319.987z"/></g></g><g><g><g><path d="M256,224.006c-0.953,0-1.898-0.336-2.656-1.007l-35.993-31.994c-0.828-0.734-1.312-1.773-1.343-2.875      c-0.031-1.101,0.391-2.163,1.171-2.944l15.997-15.997c0.75-0.75,1.766-1.172,2.828-1.172h39.992      c1.062,0,2.078,0.422,2.828,1.172l15.996,15.997c0.781,0.781,1.203,1.843,1.172,2.944c-0.031,1.102-0.516,2.141-1.344,2.875      l-35.992,31.994C257.898,223.67,256.954,224.006,256,224.006z M225.834,187.841L256,214.656l30.166-26.815l-11.826-11.825      h-36.68L225.834,187.841z"/></g></g><g><g><path d="M275.996,192.012h-39.992c-2.21,0-4-1.789-4-4c0-2.21,1.789-3.999,4-3.999h39.992c2.211,0,4,1.789,4,3.999      C279.996,190.224,278.207,192.012,275.996,192.012z"/></g></g><g><g><path d="M256,208.009c-2.211,0-4-1.788-4-3.999v-15.294c0-2.21,1.789-3.999,4-3.999c2.21,0,4,1.789,4,3.999v15.294      C260,206.221,258.211,208.009,256,208.009z"/></g></g></g><g><g><path d="M228.005,359.98h-71.986c-2.21,0-3.999-1.789-3.999-4c0-2.21,1.789-3.999,3.999-3.999h71.986     c2.211,0,3.999,1.789,3.999,3.999C232.004,358.191,230.216,359.98,228.005,359.98z"/></g></g><g><g><path d="M356.027,359.98h-71.986c-2.211,0-3.998-1.789-3.998-4c0-2.21,1.787-3.999,3.998-3.999h71.986c2.211,0,4,1.789,4,3.999     C360.027,358.191,358.238,359.98,356.027,359.98z"/></g></g></g><text x="0" y="527" fill="#B71C1C" font-size="5px" font-weight="bold" font-family="'Helvetica Neue', Helvetica, Arial-Unicode, Arial, Sans-serif">Created by lastspark</text><text x="0" y="532" fill="#B71C1C" font-size="5px" font-weight="bold" font-family="'Helvetica Neue', Helvetica, Arial-Unicode, Arial, Sans-serif">from the Noun Project</text></svg>
